# xmcd CD database file
#
# Track frame offsets:
#	182
#	19472
#	37677
#
# Disc length: 716 seconds
#
# Revision: 2
# Processed by: cddbd v1.4b41PL1 Copyright (c) Steve Scherf et al.
# Submitted via: Feurio! 1.50.2ß - http://www.feurio.com
#
DISCID=1902ca03
DTITLE=Vanessa Williams - Colours Of The Wind
DYEAR=1900
DGENRE=
TTITLE0=Colours Of The Wind, radio edit
TTITLE1=Colours Of The Wind, spanish version
TTITLE2=Colour Of the Wind, original cast version
EXTD=
EXTT0=
EXTT1=
EXTT2=
PLAYORDER=
